<?xml version="1.0" encoding="UTF-8" standalone="no"?>
<svg
   xmlns:dc="http://purl.org/dc/elements/1.1/"
   xmlns:cc="http://creativecommons.org/ns#"
   xmlns:rdf="http://www.w3.org/1999/02/22-rdf-syntax-ns#"
   xmlns:svg="http://www.w3.org/2000/svg"
   xmlns="http://www.w3.org/2000/svg"
   xmlns:sodipodi="http://sodipodi.sourceforge.net/DTD/sodipodi-0.dtd"
   xmlns:inkscape="http://www.inkscape.org/namespaces/inkscape"
   width="320.24866mm"
   height="49.05928mm"
   viewBox="0 0 320.24865 49.05928"
   version="1.1"
   id="svg8"
   inkscape:version="1.0.2 (e86c870879, 2021-01-15, custom)"
   sodipodi:docname="lablink-opcua-client-overview.svg">
  <defs
     id="defs2">
    <marker
       style="overflow:visible"
       id="marker3370"
       refX="0"
       refY="0"
       orient="auto"
       inkscape:stockid="Arrow2Send"
       inkscape:isstock="true">
      <path
         transform="matrix(-0.3,0,0,-0.3,0.69,0)"
         d="M 8.7185878,4.0337352 -2.2072895,0.01601326 8.7185884,-4.0017078 c -1.7454984,2.3720609 -1.7354408,5.6174519 -6e-7,8.035443 z"
         style="fill:#4b6273;fill-opacity:1;fill-rule:evenodd;stroke:#4b6273;stroke-width:0.625;stroke-linejoin:round;stroke-opacity:1"
         id="path3368" />
    </marker>
    <marker
       style="overflow:visible"
       id="marker3240"
       refX="0"
       refY="0"
       orient="auto"
       inkscape:stockid="Arrow2Send"
       inkscape:isstock="true"
       inkscape:collect="always">
      <path
         transform="matrix(-0.3,0,0,-0.3,0.69,0)"
         d="M 8.7185878,4.0337352 -2.2072895,0.01601326 8.7185884,-4.0017078 c -1.7454984,2.3720609 -1.7354408,5.6174519 -6e-7,8.035443 z"
         style="fill:#4b6273;fill-opacity:1;fill-rule:evenodd;stroke:#4b6273;stroke-width:0.625;stroke-linejoin:round;stroke-opacity:1"
         id="path3238" />
    </marker>
    <marker
       style="overflow:visible"
       id="marker3130"
       refX="0"
       refY="0"
       orient="auto"
       inkscape:stockid="Arrow2Send"
       inkscape:isstock="true">
      <path
         transform="matrix(-0.3,0,0,-0.3,0.69,0)"
         d="M 8.7185878,4.0337352 -2.2072895,0.01601326 8.7185884,-4.0017078 c -1.7454984,2.3720609 -1.7354408,5.6174519 -6e-7,8.035443 z"
         style="fill:#4b6273;fill-opacity:1;fill-rule:evenodd;stroke:#4b6273;stroke-width:0.625;stroke-linejoin:round;stroke-opacity:1"
         id="path3128" />
    </marker>
    <marker
       style="overflow:visible"
       id="marker2980"
       refX="0"
       refY="0"
       orient="auto"
       inkscape:stockid="Arrow2Send"
       inkscape:isstock="true"
       inkscape:collect="always">
      <path
         transform="matrix(-0.3,0,0,-0.3,0.69,0)"
         d="M 8.7185878,4.0337352 -2.2072895,0.01601326 8.7185884,-4.0017078 c -1.7454984,2.3720609 -1.7354408,5.6174519 -6e-7,8.035443 z"
         style="fill:#4b6273;fill-opacity:1;fill-rule:evenodd;stroke:#4b6273;stroke-width:0.625;stroke-linejoin:round;stroke-opacity:1"
         id="path2978" />
    </marker>
    <marker
       style="overflow:visible"
       id="marker2730"
       refX="0"
       refY="0"
       orient="auto"
       inkscape:stockid="Arrow2Send"
       inkscape:isstock="true">
      <path
         transform="matrix(-0.3,0,0,-0.3,0.69,0)"
         d="M 8.7185878,4.0337352 -2.2072895,0.01601326 8.7185884,-4.0017078 c -1.7454984,2.3720609 -1.7354408,5.6174519 -6e-7,8.035443 z"
         style="fill:#c00000;fill-opacity:1;fill-rule:evenodd;stroke:#c00000;stroke-width:0.625;stroke-linejoin:round;stroke-opacity:1"
         id="path2728" />
    </marker>
    <marker
       style="overflow:visible"
       id="marker2568"
       refX="0"
       refY="0"
       orient="auto"
       inkscape:stockid="Arrow2Send"
       inkscape:isstock="true">
      <path
         transform="matrix(-0.3,0,0,-0.3,0.69,0)"
         d="M 8.7185878,4.0337352 -2.2072895,0.01601326 8.7185884,-4.0017078 c -1.7454984,2.3720609 -1.7354408,5.6174519 -6e-7,8.035443 z"
         style="fill:#c00000;fill-opacity:1;fill-rule:evenodd;stroke:#c00000;stroke-width:0.625;stroke-linejoin:round;stroke-opacity:1"
         id="path2566" />
    </marker>
    <marker
       style="overflow:visible"
       id="marker2376"
       refX="0"
       refY="0"
       orient="auto"
       inkscape:stockid="Arrow2Send"
       inkscape:isstock="true"
       inkscape:collect="always">
      <path
         transform="matrix(-0.3,0,0,-0.3,0.69,0)"
         d="M 8.7185878,4.0337352 -2.2072895,0.01601326 8.7185884,-4.0017078 c -1.7454984,2.3720609 -1.7354408,5.6174519 -6e-7,8.035443 z"
         style="fill:#4b6273;fill-opacity:1;fill-rule:evenodd;stroke:#4b6273;stroke-width:0.625;stroke-linejoin:round;stroke-opacity:1"
         id="path2374" />
    </marker>
    <marker
       style="overflow:visible"
       id="marker2284"
       refX="0"
       refY="0"
       orient="auto"
       inkscape:stockid="Arrow2Send"
       inkscape:isstock="true"
       inkscape:collect="always">
      <path
         transform="matrix(-0.3,0,0,-0.3,0.69,0)"
         d="M 8.7185878,4.0337352 -2.2072895,0.01601326 8.7185884,-4.0017078 c -1.7454984,2.3720609 -1.7354408,5.6174519 -6e-7,8.035443 z"
         style="fill:#4b6273;fill-opacity:1;fill-rule:evenodd;stroke:#4b6273;stroke-width:0.625;stroke-linejoin:round;stroke-opacity:1"
         id="path2282" />
    </marker>
    <marker
       style="overflow:visible"
       id="marker2078"
       refX="0"
       refY="0"
       orient="auto"
       inkscape:stockid="Arrow2Send"
       inkscape:isstock="true">
      <path
         transform="matrix(-0.3,0,0,-0.3,0.69,0)"
         d="M 8.7185878,4.0337352 -2.2072895,0.01601326 8.7185884,-4.0017078 c -1.7454984,2.3720609 -1.7354408,5.6174519 -6e-7,8.035443 z"
         style="fill:#c00000;fill-opacity:1;fill-rule:evenodd;stroke:#c00000;stroke-width:0.625;stroke-linejoin:round;stroke-opacity:1"
         id="path2076" />
    </marker>
    <marker
       style="overflow:visible"
       id="Arrow2Send"
       refX="0"
       refY="0"
       orient="auto"
       inkscape:stockid="Arrow2Send"
       inkscape:isstock="true">
      <path
         transform="matrix(-0.3,0,0,-0.3,0.69,0)"
         d="M 8.7185878,4.0337352 -2.2072895,0.01601326 8.7185884,-4.0017078 c -1.7454984,2.3720609 -1.7354408,5.6174519 -6e-7,8.035443 z"
         style="fill:#c00000;fill-opacity:1;fill-rule:evenodd;stroke:#c00000;stroke-width:0.625;stroke-linejoin:round;stroke-opacity:1"
         id="path1769" />
    </marker>
    <marker
       style="overflow:visible"
       id="Arrow1Send"
       refX="0"
       refY="0"
       orient="auto"
       inkscape:stockid="Arrow1Send"
       inkscape:isstock="true">
      <path
         transform="matrix(-0.2,0,0,-0.2,-1.2,0)"
         style="fill:#c00000;fill-opacity:1;fill-rule:evenodd;stroke:#c00000;stroke-width:1pt;stroke-opacity:1"
         d="M 0,0 5,-5 -12.5,0 5,5 Z"
         id="path1751" />
    </marker>
    <marker
       style="overflow:visible"
       id="Arrow1Lend"
       refX="0"
       refY="0"
       orient="auto"
       inkscape:stockid="Arrow1Lend"
       inkscape:isstock="true">
      <path
         transform="matrix(-0.8,0,0,-0.8,-10,0)"
         style="fill:#c00000;fill-opacity:1;fill-rule:evenodd;stroke:#c00000;stroke-width:1pt;stroke-opacity:1"
         d="M 0,0 5,-5 -12.5,0 5,5 Z"
         id="path1739" />
    </marker>
    <clipPath
       clipPathUnits="userSpaceOnUse"
       id="clipPath26">
      <path
         d="M 0,1.2207e-4 H 960 V 540.00012 H 0 Z"
         clip-rule="evenodd"
         id="path24" />
    </clipPath>
    <clipPath
       clipPathUnits="userSpaceOnUse"
       id="clipPath46">
      <path
         d="M -1.1966e-5,2.4414e-4 H 959.99999 V 540.00024 H -1.1966e-5 Z"
         clip-rule="evenodd"
         id="path44" />
    </clipPath>
    <clipPath
       clipPathUnits="userSpaceOnUse"
       id="clipPath56">
      <path
         d="M 0,0 H 11.527 V 11.514 H 0 Z"
         id="path54" />
    </clipPath>
    <clipPath
       clipPathUnits="userSpaceOnUse"
       id="clipPath168">
      <path
         d="M -1.045e-5,2.4414e-4 H 959.99999 V 540.00024 H -1.045e-5 Z"
         clip-rule="evenodd"
         id="path166" />
    </clipPath>
    <clipPath
       clipPathUnits="userSpaceOnUse"
       id="clipPath178">
      <path
         d="M 0,0 H 11.527 V 11.514 H 0 Z"
         id="path176" />
    </clipPath>
  </defs>
  <sodipodi:namedview
     id="base"
     pagecolor="#ffffff"
     bordercolor="#666666"
     borderopacity="1.0"
     inkscape:pageopacity="0.0"
     inkscape:pageshadow="2"
     inkscape:zoom="0.5"
     inkscape:cx="744.08152"
     inkscape:cy="-123.93828"
     inkscape:document-units="mm"
     inkscape:current-layer="layer1"
     inkscape:document-rotation="0"
     showgrid="false"
     showguides="false"
     fit-margin-top="0"
     fit-margin-left="0"
     fit-margin-right="0"
     fit-margin-bottom="0"
     lock-margins="false"
     inkscape:window-width="1366"
     inkscape:window-height="705"
     inkscape:window-x="-8"
     inkscape:window-y="-8"
     inkscape:window-maximized="1" />
  <metadata
     id="metadata5">
    <rdf:RDF>
      <cc:Work
         rdf:about="">
        <dc:format>image/svg+xml</dc:format>
        <dc:type
           rdf:resource="http://purl.org/dc/dcmitype/StillImage" />
        <dc:title></dc:title>
      </cc:Work>
    </rdf:RDF>
  </metadata>
  <g
     inkscape:label="Layer 1"
     inkscape:groupmode="layer"
     id="layer1"
     transform="translate(83.679637,-134.17572)">
    <path
       style="fill:none;stroke:#4b6273;stroke-width:1.5;stroke-linecap:butt;stroke-linejoin:miter;stroke-miterlimit:4;stroke-dasharray:none;stroke-opacity:1;marker-end:url(#marker2284)"
       d="M 98.647436,168.54859 H 113.88795"
       id="path2280"
       sodipodi:nodetypes="cc" />
    <path
       style="fill:none;stroke:#4b6273;stroke-width:1.5;stroke-linecap:butt;stroke-linejoin:miter;stroke-miterlimit:4;stroke-dasharray:none;stroke-opacity:1;marker-end:url(#marker3130)"
       d="M 216.97322,167.2484 H 200.86771"
       id="path3126"
       sodipodi:nodetypes="cc" />
    <path
       style="fill:none;stroke:#c00000;stroke-width:1.5;stroke-linecap:butt;stroke-linejoin:miter;stroke-miterlimit:4;stroke-dasharray:none;stroke-opacity:1;marker-end:url(#marker2568)"
       d="M -13.159225,168.54859 H 14.077359"
       id="path2564"
       sodipodi:nodetypes="cc" />
    <path
       id="path58"
       style="fill:#f2f2f2;fill-opacity:1;fill-rule:nonzero;stroke:#4b6273;stroke-width:0.6;stroke-miterlimit:4;stroke-dasharray:none;stroke-opacity:1"
       d="m 220.40282,136.56713 v 1.85312 h 1.05782 v -1.85312 z m 2.11563,0 v 1.85312 h 1.05782 v -1.85312 z m 2.11564,0 v 1.85312 h 1.05729 v -1.85312 z m 2.11511,0 v 1.85312 h 1.05782 v -1.85312 z m 2.11563,0 v 1.85312 h 1.05782 v -1.85312 z m 2.11564,0 v 1.85312 h 1.05781 v -1.85312 z m -10.84172,2.91197 c -0.58418,0 -1.05781,0.47454 -1.05781,1.05936 v 12.17704 c 0,0.58482 0.47363,1.05885 1.05781,1.05885 h 12.1636 c 0.58418,0 1.05782,-0.47403 1.05782,-1.05885 v -12.17704 c 0,-0.58482 -0.47364,-1.05936 -1.05782,-1.05936 z m -3.96668,1.32395 v 1.05885 h 1.85105 v -1.05885 z m 18.24591,0 v 1.05885 h 1.85105 v -1.05885 z m -12.69276,1.32343 h 8.99067 v 9.00048 h -8.99067 z m -5.55315,0.79427 v 1.05885 h 1.85105 v -1.05885 z m 18.24591,0 v 1.05885 h 1.85105 v -1.05885 z m -11.63495,0.26458 v 6.88279 h 6.87504 v -6.88279 z m -6.61096,1.85312 v 1.05885 h 1.85105 v -1.05885 z m 18.24591,0 v 1.05885 h 1.85105 v -1.05885 z m -18.24591,2.1177 v 1.05885 h 1.85105 v -1.05885 z m 18.24591,0 v 1.05885 h 1.85105 v -1.05885 z m -18.24591,2.1177 v 1.05937 h 1.85105 v -1.05937 z m 18.24591,0 v 1.05937 h 1.85105 v -1.05937 z m -18.24591,2.11821 v 1.05885 h 1.85105 v -1.05885 z m 18.24591,0 v 1.05885 h 1.85105 v -1.05885 z m -14.01516,3.44114 v 1.85312 h 1.05782 v -1.85312 z m 2.11563,0 v 1.85312 h 1.05782 v -1.85312 z m 2.11564,0 v 1.85312 h 1.05729 v -1.85312 z m 2.11511,0 v 1.85312 h 1.05782 v -1.85312 z m 2.11563,0 v 1.85312 h 1.05782 v -1.85312 z m 2.11564,0 v 1.85312 h 1.05781 v -1.85312 z" />
    <path
       id="path180"
       style="fill:#f2f2f2;fill-opacity:1;fill-rule:nonzero;stroke:#4b6273;stroke-width:0.6;stroke-miterlimit:4;stroke-dasharray:none;stroke-opacity:1"
       d="m 218.7055,161.81343 c -0.52292,0 -0.94671,0.42359 -0.94671,0.94774 v 2.34043 c 0,0.52349 0.42379,0.94723 0.94671,0.94723 h 15.03009 c 0.52293,0 0.94671,-0.42374 0.94671,-0.94723 v -2.34043 c 0,-0.52415 -0.42378,-0.94774 -0.94671,-0.94774 z m 1.69757,1.58853 c 0.2922,0 0.52865,0.23687 0.52865,0.52917 0,0.29251 -0.23645,0.52968 -0.52865,0.52968 -0.2922,0 -0.52917,-0.23716 -0.52917,-0.52968 0,-0.29231 0.23697,-0.52917 0.52917,-0.52917 z m 2.64428,0 c 0.2922,0 0.52865,0.23687 0.52865,0.52917 0,0.29251 -0.23645,0.52968 -0.52865,0.52968 -0.2922,0 -0.52864,-0.23716 -0.52864,-0.52968 0,-0.29231 0.23644,-0.52917 0.52864,-0.52917 z m 2.64429,0 c 0.2922,0 0.52916,0.23687 0.52916,0.52917 0,0.29251 -0.23696,0.52968 -0.52916,0.52968 -0.2922,0 -0.52865,-0.23716 -0.52865,-0.52968 0,-0.29231 0.23645,-0.52917 0.52865,-0.52917 z m -6.98614,3.70623 c -0.52292,0 -0.94671,0.42374 -0.94671,0.94723 v 2.34043 c 0,0.52349 0.42379,0.94775 0.94671,0.94774 h 15.03009 c 0.52293,0 0.94671,-0.42425 0.94671,-0.94774 v -2.34043 c 0,-0.5235 -0.42378,-0.94723 -0.94671,-0.94723 z m 1.69757,1.58802 c 0.2922,0 0.52865,0.23739 0.52865,0.52968 0,0.29253 -0.23645,0.52917 -0.52865,0.52917 -0.2922,0 -0.52917,-0.23664 -0.52917,-0.52917 0,-0.29229 0.23698,-0.52968 0.52917,-0.52968 z m 2.64428,0 c 0.29221,0 0.52865,0.23739 0.52865,0.52968 0,0.29253 -0.23644,0.52917 -0.52865,0.52917 -0.2922,0 -0.52864,-0.23664 -0.52864,-0.52917 0,-0.29229 0.23644,-0.52968 0.52864,-0.52968 z m 2.64429,0 c 0.29221,0 0.52916,0.23739 0.52916,0.52968 0,0.29253 -0.23696,0.52917 -0.52916,0.52917 -0.29219,0 -0.52864,-0.23664 -0.52864,-0.52917 0,-0.29229 0.23645,-0.52968 0.52864,-0.52968 z m -6.98613,3.70624 c -0.52292,0 -0.94671,0.42425 -0.94671,0.94774 v 2.33991 c 0,0.52349 0.42379,0.94775 0.94671,0.94775 h 6.72154 v 2.1177 h 1.58699 v -2.1177 h 6.72155 c 0.52294,0 0.94671,-0.42426 0.94671,-0.94775 v -2.33991 c 0,-0.52349 -0.42377,-0.94774 -0.94671,-0.94774 z m 1.69756,1.58853 c 0.29221,0 0.52866,0.23688 0.52866,0.52916 0,0.29251 -0.23645,0.52968 -0.52866,0.52968 -0.29219,0 -0.52916,-0.23717 -0.52916,-0.52968 0,-0.29229 0.23697,-0.52916 0.52916,-0.52916 z m 2.64429,0 c 0.2922,0 0.52864,0.23688 0.52864,0.52916 0,0.29251 -0.23644,0.52968 -0.52864,0.52968 -0.29221,0 -0.52864,-0.23717 -0.52864,-0.52968 0,-0.29229 0.23643,-0.52916 0.52864,-0.52916 z m 2.64429,0 c 0.2922,0 0.52916,0.23688 0.52916,0.52916 0,0.29251 -0.23696,0.52968 -0.52916,0.52968 -0.2922,0 -0.52865,-0.23717 -0.52865,-0.52968 0,-0.29229 0.23645,-0.52916 0.52865,-0.52916 z m -8.99067,5.82342 v 1.58853 h 7.66878 v -1.58853 z m 8.72608,0 v 1.58853 h 1.58698 v -1.58853 z m 2.64429,0 v 1.58853 h 7.66878 v -1.58853 z" />
    <g
       id="g1725"
       transform="translate(-3.9701442)">
      <path
         d="m 20.511737,142.56225 c 0,-4.45911 3.612444,-8.07155 8.071555,-8.07155 h 65.898886 c 4.45911,0 8.071562,3.61244 8.071562,8.07155 v 32.28623 c 0,4.45911 -3.612452,8.07155 -8.071562,8.07155 H 28.583292 c -4.459111,0 -8.071555,-3.61244 -8.071555,-8.07155 z"
         style="fill:#f2f2f2;fill-opacity:1;stroke:#c00000;stroke-width:0.6;stroke-linecap:butt;stroke-linejoin:miter;stroke-miterlimit:10;stroke-dasharray:none;stroke-opacity:1"
         id="path38" />
      <text
         xml:space="preserve"
         style="font-style:normal;font-variant:normal;font-weight:normal;font-stretch:normal;font-size:12.7px;line-height:1.25;font-family:Calibri;-inkscape-font-specification:Calibri;letter-spacing:0px;word-spacing:0px;fill:#000000;fill-opacity:1;stroke:none;stroke-width:0.264583"
         x="61.466591"
         y="155.21617"
         id="text1648"><tspan
           sodipodi:role="line"
           id="tspan1646"
           x="61.466591"
           y="155.21617"
           style="font-weight:bold;font-size:12.7px;text-align:center;text-anchor:middle;stroke-width:0.264583">Lablink </tspan><tspan
           sodipodi:role="line"
           x="61.466595"
           y="171.09117"
           style="font-weight:bold;font-size:12.7px;text-align:center;text-anchor:middle;stroke-width:0.264583"
           id="tspan1650">OPC UA client</tspan></text>
    </g>
    <g
       id="g1732">
      <g
         id="g1669"
         transform="translate(0,-0.14500683)">
        <path
           d="m -75.905428,150.57667 c -0.954616,-5.63739 3.960989,-10.82675 10.97915,-11.5958 2.843742,-0.31045 5.735461,0.15522 8.211608,1.31939 2.623256,-3.97228 8.754534,-5.48217 13.69695,-3.37256 0.860778,0.37042 1.654528,0.83608 2.353028,1.38995 2.042583,-3.29495 7.020277,-4.63198 11.116027,-2.99156 1.135945,0.45508 2.123723,1.11478 2.892778,1.92264 3.294944,-3.11503 9.115778,-3.49956 12.999861,-0.85725 1.633361,1.10772 2.734028,2.63878 3.115028,4.32858 5.3974995,1.18181 8.5795549,5.66561 7.1119994,10.00831 -0.1234722,0.36689 -0.2786944,0.72319 -0.4656666,1.07244 4.32858321,4.52614 3.2702499,11.01372 -2.3671389,14.49211 -1.7533055,1.08303 -3.8241109,1.78506 -6.0148609,2.03553 -0.04939,4.87186 -5.005917,8.78769 -11.073694,8.74889 -2.028472,-0.0141 -4.011083,-0.47625 -5.729111,-1.34056 -2.053167,5.461 -9.211028,8.54781 -15.991417,6.89681 -2.839861,-0.69497 -5.291666,-2.159 -6.942666,-4.14867 -6.939844,3.3655 -15.947672,1.55575 -20.119269,-4.0393 -0.05256,-0.0706 -0.10407,-0.14111 -0.15487,-0.21167 -4.542013,0.42686 -8.655755,-2.17664 -9.188802,-5.81731 -0.284339,-1.94027 0.512586,-3.88055 2.178403,-5.30577 -3.932767,-1.86267 -5.253567,-5.94431 -2.950634,-9.11931 1.328561,-1.83444 3.659011,-3.04447 6.274153,-3.26319 z"
           style="fill:#f2f2f2;fill-opacity:1;stroke:#c00000;stroke-width:0.6;stroke-linecap:butt;stroke-linejoin:miter;stroke-miterlimit:10;stroke-dasharray:none;stroke-opacity:1"
           id="path32" />
        <path
           d="m -74.399419,163.81289 c -1.67887,0.10584 -3.357739,-0.20461 -4.810831,-0.89252 m 9.055453,10.67152 c -0.675217,0.2152 -1.382889,0.35984 -2.105025,0.42687 m 20.242741,4.27213 c -0.508,-0.61383 -0.934861,-1.26647 -1.27,-1.95086 m 24.722666,-2.91394 c -0.07761,0.72672 -0.246944,1.44286 -0.508,2.14136 m 10.576278,-15.367 c 3.806472,1.48872 6.208889,4.60022 6.173611,8.001 m 8.3890552,-16.52058 c -0.6138333,1.15711 -1.55575,2.18369 -2.7481388,2.99861 m -3.8488054,-14.12875 c 0.105833,0.46919 0.155222,0.94192 0.144639,1.41816 m -17.702389,-3.06916 c 0.356306,-0.65264 0.832556,-1.26295 1.407584,-1.80622 m -14.583833,2.667 c 0.148166,-0.53975 0.377472,-1.06539 0.684388,-1.55928 m -16.144169,2.08844 c 0.896056,0.41981 1.724731,0.92781 2.466975,1.50989 m -21.217113,10.36814 c -0.195439,-0.51858 -0.339725,-1.05128 -0.430742,-1.5875"
           style="fill:none;stroke:#c00000;stroke-width:0.3;stroke-linecap:butt;stroke-linejoin:miter;stroke-miterlimit:10;stroke-dasharray:none;stroke-opacity:1"
           id="path34" />
      </g>
      <text
         xml:space="preserve"
         style="font-style:normal;font-variant:normal;font-weight:normal;font-stretch:normal;font-size:12.7px;line-height:1.25;font-family:Calibri;-inkscape-font-specification:Calibri;letter-spacing:0px;word-spacing:0px;fill:#000000;fill-opacity:1;stroke:none;stroke-width:0.264583"
         x="-42.617077"
         y="162.47844"
         id="text1656"><tspan
           sodipodi:role="line"
           x="-42.617077"
           y="162.47844"
           style="font-weight:bold;font-size:12.7px;text-align:center;text-anchor:middle;stroke-width:0.264583"
           id="tspan1654">Lablink</tspan></text>
    </g>
    <g
       id="g1719"
       transform="translate(-2.0507409)">
      <path
         d="m 118.40757,142.56225 c 0,-4.45911 3.61245,-8.07155 8.07156,-8.07155 h 65.89888 c 4.45911,0 8.07156,3.61244 8.07156,8.07155 v 32.28623 c 0,4.45911 -3.61245,8.07155 -8.07156,8.07155 h -65.89888 c -4.45911,0 -8.07156,-3.61244 -8.07156,-8.07155 z"
         style="fill:#f2f2f2;fill-opacity:1;stroke:#4b6273;stroke-width:0.6;stroke-linecap:butt;stroke-linejoin:miter;stroke-miterlimit:10;stroke-dasharray:none;stroke-opacity:1"
         id="path1685" />
      <text
         xml:space="preserve"
         style="font-style:normal;font-variant:normal;font-weight:normal;font-stretch:normal;font-size:12.7px;line-height:1.25;font-family:Calibri;-inkscape-font-specification:Calibri;letter-spacing:0px;word-spacing:0px;fill:#000000;fill-opacity:1;stroke:none;stroke-width:0.264583"
         x="159.36243"
         y="155.21617"
         id="text1691"><tspan
           sodipodi:role="line"
           x="159.36243"
           y="155.21617"
           style="font-weight:bold;font-size:12.7px;text-align:center;text-anchor:middle;stroke-width:0.264583"
           id="tspan1689">OPC UA </tspan><tspan
           sodipodi:role="line"
           x="159.36243"
           y="171.09117"
           style="font-weight:bold;font-size:12.7px;text-align:center;text-anchor:middle;stroke-width:0.264583"
           id="tspan1705">server</tspan></text>
    </g>
    <path
       style="fill:none;stroke:#4b6273;stroke-width:1.5;stroke-linecap:butt;stroke-linejoin:miter;stroke-miterlimit:4;stroke-dasharray:none;stroke-opacity:1;marker-end:url(#marker2376)"
       d="M 116.29298,148.88137 H 101.05247"
       id="path2372"
       sodipodi:nodetypes="cc" />
    <path
       style="fill:none;stroke:#c00000;stroke-width:1.5;stroke-linecap:butt;stroke-linejoin:miter;stroke-miterlimit:4;stroke-dasharray:none;stroke-opacity:1;marker-end:url(#marker2730)"
       d="M 16.406958,148.88137 H -0.67271408"
       id="path2726"
       sodipodi:nodetypes="cc" />
    <path
       style="fill:none;stroke:#4b6273;stroke-width:1.5;stroke-linecap:butt;stroke-linejoin:miter;stroke-miterlimit:4;stroke-dasharray:none;stroke-opacity:1;marker-end:url(#marker3240)"
       d="m 198.69883,174.31899 h 15.87165"
       id="path3236"
       sodipodi:nodetypes="cc" />
    <path
       style="fill:none;stroke:#4b6273;stroke-width:1.5;stroke-linecap:butt;stroke-linejoin:miter;stroke-miterlimit:4;stroke-dasharray:none;stroke-opacity:1;marker-end:url(#marker2980)"
       d="M 215.21927,143.09143 H 200.86771"
       id="path2976"
       sodipodi:nodetypes="cc" />
    <path
       style="fill:none;stroke:#4b6273;stroke-width:1.5;stroke-linecap:butt;stroke-linejoin:miter;stroke-miterlimit:4;stroke-dasharray:none;stroke-opacity:1;marker-end:url(#marker3370)"
       d="m 198.69883,150.16202 h 14.37495"
       id="path3366"
       sodipodi:nodetypes="cc" />
  </g>
</svg>
