<?xml version="1.0" encoding="UTF-8" standalone="no"?>
<svg
   xmlns:dc="http://purl.org/dc/elements/1.1/"
   xmlns:cc="http://creativecommons.org/ns#"
   xmlns:rdf="http://www.w3.org/1999/02/22-rdf-syntax-ns#"
   xmlns:svg="http://www.w3.org/2000/svg"
   xmlns="http://www.w3.org/2000/svg"
   xmlns:sodipodi="http://sodipodi.sourceforge.net/DTD/sodipodi-0.dtd"
   xmlns:inkscape="http://www.inkscape.org/namespaces/inkscape"
   width="367.87253mm"
   height="49.029331mm"
   viewBox="0 0 367.87253 49.029331"
   version="1.1"
   id="svg4432"
   inkscape:version="1.0.2 (e86c870879, 2021-01-15, custom)"
   sodipodi:docname="lablink-opcua-example.svg">
  <defs
     id="defs4426">
    <marker
       style="overflow:visible"
       id="marker5932"
       refX="0"
       refY="0"
       orient="auto"
       inkscape:stockid="Arrow2Send"
       inkscape:isstock="true">
      <path
         transform="matrix(-0.3,0,0,-0.3,0.69,0)"
         d="M 8.7185878,4.0337352 -2.2072895,0.01601326 8.7185884,-4.0017078 c -1.7454984,2.3720609 -1.7354408,5.6174519 -6e-7,8.035443 z"
         style="fill:#c00000;fill-opacity:1;fill-rule:evenodd;stroke:#c00000;stroke-width:0.625;stroke-linejoin:round;stroke-opacity:1"
         id="path5930" />
    </marker>
    <marker
       style="overflow:visible"
       id="marker5848"
       refX="0"
       refY="0"
       orient="auto"
       inkscape:stockid="Arrow2Send"
       inkscape:isstock="true"
       inkscape:collect="always">
      <path
         transform="matrix(-0.3,0,0,-0.3,0.69,0)"
         d="M 8.7185878,4.0337352 -2.2072895,0.01601326 8.7185884,-4.0017078 c -1.7454984,2.3720609 -1.7354408,5.6174519 -6e-7,8.035443 z"
         style="fill:#c00000;fill-opacity:1;fill-rule:evenodd;stroke:#c00000;stroke-width:0.625;stroke-linejoin:round;stroke-opacity:1"
         id="path5846" />
    </marker>
    <marker
       style="overflow:visible"
       id="marker5766"
       refX="0"
       refY="0"
       orient="auto"
       inkscape:stockid="Arrow2Send"
       inkscape:isstock="true"
       inkscape:collect="always">
      <path
         transform="matrix(-0.3,0,0,-0.3,0.69,0)"
         d="M 8.7185878,4.0337352 -2.2072895,0.01601326 8.7185884,-4.0017078 c -1.7454984,2.3720609 -1.7354408,5.6174519 -6e-7,8.035443 z"
         style="fill:#4b6273;fill-opacity:1;fill-rule:evenodd;stroke:#4b6273;stroke-width:0.625;stroke-linejoin:round;stroke-opacity:1"
         id="path5764" />
    </marker>
    <rect
       x="83.448837"
       y="165.11983"
       width="43.832203"
       height="4.2763124"
       id="rect5510" />
    <clipPath
       clipPathUnits="userSpaceOnUse"
       id="clipPath4450">
      <path
         d="M 0,1.2207e-4 H 960 V 540.00012 H 0 Z"
         clip-rule="evenodd"
         id="path4448" />
    </clipPath>
    <clipPath
       clipPathUnits="userSpaceOnUse"
       id="clipPath4460">
      <path
         d="M -4.9378e-5,2.4414e-4 H 959.99995 V 540.00024 H -4.9378e-5 Z"
         clip-rule="evenodd"
         id="path4458" />
    </clipPath>
    <clipPath
       clipPathUnits="userSpaceOnUse"
       id="clipPath4470">
      <path
         d="M 0,0 H 11.527 V 11.514 H 0 Z"
         id="path4468" />
    </clipPath>
    <clipPath
       clipPathUnits="userSpaceOnUse"
       id="clipPath4486">
      <path
         d="M -1.2205e-5,2.4414e-4 H 959.99999 V 540.00024 H -1.2205e-5 Z"
         clip-rule="evenodd"
         id="path4484" />
    </clipPath>
    <clipPath
       clipPathUnits="userSpaceOnUse"
       id="clipPath4496">
      <path
         d="M 0,0 H 11.527 V 11.514 H 0 Z"
         id="path4494" />
    </clipPath>
    <clipPath
       clipPathUnits="userSpaceOnUse"
       id="clipPath4508">
      <path
         d="M -5.9e-7,11.514 H 11.52 V -0.0060129 l -11.520000664,-1e-6"
         clip-rule="evenodd"
         id="path4506" />
    </clipPath>
    <rect
       x="83.448837"
       y="165.11983"
       width="43.832203"
       height="4.2763124"
       id="rect5528" />
    <marker
       style="overflow:visible"
       id="marker2284"
       refX="0"
       refY="0"
       orient="auto"
       inkscape:stockid="Arrow2Send"
       inkscape:isstock="true"
       inkscape:collect="always">
      <path
         transform="matrix(-0.3,0,0,-0.3,0.69,0)"
         d="M 8.7185878,4.0337352 -2.2072895,0.01601326 8.7185884,-4.0017078 c -1.7454984,2.3720609 -1.7354408,5.6174519 -6e-7,8.035443 z"
         style="fill:#4b6273;fill-opacity:1;fill-rule:evenodd;stroke:#4b6273;stroke-width:0.625;stroke-linejoin:round;stroke-opacity:1"
         id="path2282" />
    </marker>
  </defs>
  <sodipodi:namedview
     id="base"
     pagecolor="#ffffff"
     bordercolor="#666666"
     borderopacity="1.0"
     inkscape:pageopacity="0.0"
     inkscape:pageshadow="2"
     inkscape:zoom="0.49497475"
     inkscape:cx="714.12065"
     inkscape:cy="152.03647"
     inkscape:document-units="mm"
     inkscape:current-layer="layer1"
     inkscape:document-rotation="0"
     showgrid="false"
     inkscape:window-width="1366"
     inkscape:window-height="705"
     inkscape:window-x="-8"
     inkscape:window-y="-8"
     inkscape:window-maximized="1"
     fit-margin-top="0"
     fit-margin-left="0"
     fit-margin-right="0"
     fit-margin-bottom="0" />
  <metadata
     id="metadata4429">
    <rdf:RDF>
      <cc:Work
         rdf:about="">
        <dc:format>image/svg+xml</dc:format>
        <dc:type
           rdf:resource="http://purl.org/dc/dcmitype/StillImage" />
        <dc:title></dc:title>
      </cc:Work>
    </rdf:RDF>
  </metadata>
  <g
     inkscape:label="Layer 1"
     inkscape:groupmode="layer"
     id="layer1"
     transform="translate(72.622081,-158.78928)">
    <path
       id="path4472"
       style="fill:#f2f2f2;fill-opacity:1;fill-rule:nonzero;stroke:#4b6273;stroke-width:0.6;stroke-miterlimit:4;stroke-dasharray:none;stroke-opacity:1"
       d="m 111.31418,163.26375 c -8.11612,0 -14.695386,1.8887 -14.695386,4.21877 0,2.33008 6.579266,4.21876 14.695386,4.21876 8.1161,0 14.69536,-1.88868 14.69536,-4.21876 0,-2.33007 -6.57926,-4.21877 -14.69536,-4.21877 z m -14.695386,6.32816 v 8.43858 c 0,2.32041 6.612946,4.21876 14.695386,4.21876 8.08244,0 14.69536,-1.89835 14.69536,-4.21876 v -8.43858 c 0,2.32041 -6.61292,4.2198 -14.69536,4.2198 -8.08244,0 -14.695386,-1.89939 -14.695386,-4.2198 z m 25.191766,6.32919 c 0.62981,0 1.05027,0.42134 1.05027,1.05417 0,0.63285 -0.42046,1.0552 -1.05027,1.05522 -0.6298,0 -1.04922,-0.42237 -1.04922,-1.05522 0,-0.63283 0.41942,-1.05417 1.04922,-1.05417 z m -25.191766,4.21876 v 8.43755 c 0,2.32041 6.612946,4.21878 14.695386,4.21878 8.08244,0 14.69536,-1.89837 14.69536,-4.21878 v -8.43755 c 0,2.32043 -6.61292,4.21877 -14.69536,4.21877 -8.08244,0 -14.695386,-1.89834 -14.695386,-4.21877 z m 25.191766,6.32816 c 0.62981,0 1.05027,0.42237 1.05027,1.05521 0,0.63283 -0.42046,1.05418 -1.05027,1.05418 -0.6298,0 -1.04922,-0.42135 -1.04922,-1.05418 0,-0.63284 0.41942,-1.05521 1.04922,-1.05521 z m -25.191766,4.21878 v 8.43858 c 0,2.32041 6.612946,4.21876 14.695386,4.21876 8.08244,0 14.69536,-1.89835 14.69536,-4.21876 v -8.43858 c 0,2.32041 -6.61292,4.21876 -14.69536,4.21876 -8.08244,0 -14.695386,-1.89835 -14.695386,-4.21876 z m 25.191766,6.32815 c 0.62981,0 1.05027,0.42236 1.05027,1.05522 0,0.63281 -0.42046,1.05521 -1.05027,1.05521 -0.6298,0 -1.04922,-0.4224 -1.04922,-1.05521 0,-0.63286 0.41942,-1.05522 1.04922,-1.05522 z" />
    <g
       id="g5466"
       transform="matrix(1.4999648,0,0,1.5026523,-37.219463,-27.487371)"
       style="stroke-width:0.666085">
      <rect
         style="fill:#000000;fill-opacity:1;stroke:none;stroke-width:0.399652;stroke-miterlimit:4;stroke-dasharray:none;stroke-dashoffset:6.38823;stroke-opacity:1"
         id="rect5461"
         width="26.214439"
         height="15.524543"
         x="-21.089436"
         y="134.45779" />
      <path
         d="m -16.467212,146.64848 -1.087128,-1.09449 3.307645,-3.3339 -3.307645,-3.33391 1.087128,-1.09448 4.402483,4.42839 z"
         style="fill:#c00000;fill-opacity:1;fill-rule:nonzero;stroke:none;stroke-width:1.46861"
         id="path4500" />
      <path
         d="m -23.402474,128.24795 v 24.06311 H 7.4380442 v -24.06311 z m 26.599947,2.3287 c 0.4259847,0 0.7710129,0.34767 0.7710129,0.77622 0,0.42887 -0.3450282,0.77623 -0.7710129,0.77623 -0.4259846,0 -0.7710129,-0.34736 -0.7710129,-0.77623 0,-0.42855 0.3450283,-0.77622 0.7710129,-0.77622 z m -2.69854532,0 c 0.42598473,0 0.77101292,0.34767 0.77101292,0.77622 0,0.42887 -0.34502819,0.77623 -0.77101292,0.77623 -0.42598459,0 -0.77101293,-0.34736 -0.77101293,-0.77623 0,-0.42855 0.34502834,-0.77622 0.77101293,-0.77622 z m -2.69854538,0 c 0.4259848,0 0.771013,0.34767 0.771013,0.77622 0,0.42887 -0.3450282,0.77623 -0.771013,0.77623 -0.4259845,0 -0.7710129,-0.34736 -0.7710129,-0.77623 0,-0.42855 0.3450284,-0.77622 0.7710129,-0.77622 z m 7.3246231,19.40573 H -21.089435 V 134.45779 H 5.1250054 Z"
         style="fill:#f2f2f2;fill-opacity:1;fill-rule:nonzero;stroke:#c00000;stroke-width:0.399651;stroke-miterlimit:4;stroke-dasharray:none;stroke-opacity:1"
         id="path4512" />
    </g>
    <g
       id="g1725"
       transform="translate(-26.254805,24.598585)">
      <path
         d="m 20.511737,142.56225 c 0,-4.45911 3.612444,-8.07155 8.071555,-8.07155 h 65.898886 c 4.45911,0 8.071562,3.61244 8.071562,8.07155 v 32.28623 c 0,4.45911 -3.612452,8.07155 -8.071562,8.07155 H 28.583292 c -4.459111,0 -8.071555,-3.61244 -8.071555,-8.07155 z"
         style="fill:#f2f2f2;fill-opacity:1;stroke:#c00000;stroke-width:0.6;stroke-linecap:butt;stroke-linejoin:miter;stroke-miterlimit:10;stroke-dasharray:none;stroke-opacity:1"
         id="path38" />
      <text
         xml:space="preserve"
         style="font-style:normal;font-variant:normal;font-weight:normal;font-stretch:normal;font-size:9.87778px;line-height:1.25;font-family:Calibri;-inkscape-font-specification:Calibri;letter-spacing:0px;word-spacing:0px;fill:#000000;fill-opacity:1;stroke:none;stroke-width:0.264583"
         x="61.466591"
         y="155.21617"
         id="text1648"><tspan
           sodipodi:role="line"
           x="61.466591"
           y="155.21617"
           style="font-weight:normal;font-size:9.87778px;text-align:center;text-anchor:middle;stroke-width:0.264583"
           id="tspan1650">BasicOpcUaClient</tspan><tspan
           sodipodi:role="line"
           x="61.466591"
           y="167.5634"
           style="font-weight:bold;font-size:9.87778px;text-align:center;text-anchor:middle;stroke-width:0.264583"
           id="tspan5506">Writer</tspan></text>
      <text
         xml:space="preserve"
         id="text5508"
         style="font-style:normal;font-variant:normal;font-weight:normal;font-stretch:normal;font-size:3.88056px;line-height:1.25;font-family:Calibri;-inkscape-font-specification:Calibri;letter-spacing:0px;word-spacing:0px;white-space:pre;shape-inside:url(#rect5510);fill:#000000;fill-opacity:1;stroke:none;" />
    </g>
    <g
       id="g5526"
       transform="translate(125.81767,24.598585)">
      <path
         d="m 20.511737,142.56225 c 0,-4.45911 3.612444,-8.07155 8.071555,-8.07155 h 65.898886 c 4.45911,0 8.071562,3.61244 8.071562,8.07155 v 32.28623 c 0,4.45911 -3.612452,8.07155 -8.071562,8.07155 H 28.583292 c -4.459111,0 -8.071555,-3.61244 -8.071555,-8.07155 z"
         style="fill:#f2f2f2;fill-opacity:1;stroke:#c00000;stroke-width:0.6;stroke-linecap:butt;stroke-linejoin:miter;stroke-miterlimit:10;stroke-dasharray:none;stroke-opacity:1"
         id="path5514" />
      <text
         xml:space="preserve"
         style="font-style:normal;font-variant:normal;font-weight:normal;font-stretch:normal;font-size:9.87778px;line-height:1.25;font-family:Calibri;-inkscape-font-specification:Calibri;letter-spacing:0px;word-spacing:0px;fill:#000000;fill-opacity:1;stroke:none;stroke-width:0.264583"
         x="61.466591"
         y="155.21617"
         id="text5520"><tspan
           sodipodi:role="line"
           x="61.466591"
           y="155.21617"
           style="font-weight:normal;font-size:9.87778px;text-align:center;text-anchor:middle;stroke-width:0.264583"
           id="tspan5516">BasicOpcUaClient</tspan><tspan
           sodipodi:role="line"
           x="61.466591"
           y="167.5634"
           style="font-weight:bold;font-size:9.87778px;text-align:center;text-anchor:middle;stroke-width:0.264583"
           id="tspan5518">Reader</tspan></text>
      <text
         xml:space="preserve"
         id="text5524"
         style="font-style:normal;font-variant:normal;font-weight:normal;font-stretch:normal;font-size:3.88056px;line-height:1.25;font-family:Calibri;-inkscape-font-specification:Calibri;letter-spacing:0px;word-spacing:0px;white-space:pre;shape-inside:url(#rect5528);fill:#000000;fill-opacity:1;stroke:none;" />
    </g>
    <g
       id="g5536"
       transform="matrix(1.4999648,0,0,1.5026523,283.7939,-27.487371)"
       style="stroke-width:0.666085">
      <rect
         style="fill:#000000;fill-opacity:1;stroke:none;stroke-width:0.399652;stroke-miterlimit:4;stroke-dasharray:none;stroke-dashoffset:6.38823;stroke-opacity:1"
         id="rect5530"
         width="26.214439"
         height="15.524543"
         x="-21.089436"
         y="134.45779" />
      <path
         d="m -16.467212,146.64848 -1.087128,-1.09449 3.307645,-3.3339 -3.307645,-3.33391 1.087128,-1.09448 4.402483,4.42839 z"
         style="fill:#c00000;fill-opacity:1;fill-rule:nonzero;stroke:none;stroke-width:1.46861"
         id="path5532" />
      <path
         d="m -23.402474,128.24795 v 24.06311 H 7.4380442 v -24.06311 z m 26.599947,2.3287 c 0.4259847,0 0.7710129,0.34767 0.7710129,0.77622 0,0.42887 -0.3450282,0.77623 -0.7710129,0.77623 -0.4259846,0 -0.7710129,-0.34736 -0.7710129,-0.77623 0,-0.42855 0.3450283,-0.77622 0.7710129,-0.77622 z m -2.69854532,0 c 0.42598473,0 0.77101292,0.34767 0.77101292,0.77622 0,0.42887 -0.34502819,0.77623 -0.77101292,0.77623 -0.42598459,0 -0.77101293,-0.34736 -0.77101293,-0.77623 0,-0.42855 0.34502834,-0.77622 0.77101293,-0.77622 z m -2.69854538,0 c 0.4259848,0 0.771013,0.34767 0.771013,0.77622 0,0.42887 -0.3450282,0.77623 -0.771013,0.77623 -0.4259845,0 -0.7710129,-0.34736 -0.7710129,-0.77623 0,-0.42855 0.3450284,-0.77622 0.7710129,-0.77622 z m 7.3246231,19.40573 H -21.089435 V 134.45779 H 5.1250054 Z"
         style="fill:#f2f2f2;fill-opacity:1;fill-rule:nonzero;stroke:#c00000;stroke-width:0.399651;stroke-miterlimit:4;stroke-dasharray:none;stroke-opacity:1"
         id="path5534" />
    </g>
    <path
       style="fill:none;stroke:#4b6273;stroke-width:2;stroke-linecap:butt;stroke-linejoin:miter;stroke-miterlimit:4;stroke-dasharray:none;stroke-opacity:1;marker-end:url(#marker2284)"
       d="m 76.598935,183.31356 h 15.24052"
       id="path2280"
       sodipodi:nodetypes="cc" />
    <path
       style="fill:none;stroke:#4b6273;stroke-width:2;stroke-linecap:butt;stroke-linejoin:miter;stroke-miterlimit:4;stroke-dasharray:none;stroke-opacity:1;marker-end:url(#marker5766)"
       d="m 127.89705,183.31356 h 15.24052"
       id="path5762"
       sodipodi:nodetypes="cc" />
    <path
       style="fill:none;stroke:#c00000;stroke-width:2;stroke-linecap:butt;stroke-linejoin:miter;stroke-miterlimit:4;stroke-dasharray:none;stroke-opacity:1;marker-end:url(#marker5848)"
       d="m 228.67141,183.31356 h 15.24052"
       id="path5844"
       sodipodi:nodetypes="cc" />
    <path
       style="fill:none;stroke:#c00000;stroke-width:2;stroke-linecap:butt;stroke-linejoin:miter;stroke-miterlimit:4;stroke-dasharray:none;stroke-opacity:1;marker-end:url(#marker5932)"
       d="M -24.175426,183.31356 H -8.9349062"
       id="path5928"
       sodipodi:nodetypes="cc" />
  </g>
</svg>
